<svg id="Layer_2" data-name="Layer 2" xmlns="http://www.w3.org/2000/svg" xmlns:xlink="http://www.w3.org/1999/xlink" viewBox="0 0 266.26 479.88"><defs><style>.cls-1{fill:url(#linear-gradient);}.cls-2{fill:url(#linear-gradient-2);}.cls-3{fill:url(#linear-gradient-3);}.cls-4{fill:url(#linear-gradient-4);}.cls-5{fill:url(#linear-gradient-5);}.cls-6{fill:#fff;}</style><linearGradient id="linear-gradient" x1="59.78" y1="122.61" x2="91.89" y2="122.61" gradientUnits="userSpaceOnUse"><stop offset="0" stop-color="#3aaa35"/><stop offset="0.22" stop-color="#35a435"/><stop offset="0.49" stop-color="#289534"/><stop offset="0.8" stop-color="#127b34"/><stop offset="1" stop-color="#063"/></linearGradient><linearGradient id="linear-gradient-2" x1="680.87" y1="394.07" x2="677.35" y2="394.07" gradientUnits="userSpaceOnUse"><stop offset="0" stop-color="#fff"/></linearGradient><linearGradient id="linear-gradient-3" x1="232.88" y1="485.31" x2="415.3" y2="485.31" gradientUnits="userSpaceOnUse"><stop offset="0" stop-color="#fff"/><stop offset="1" stop-color="#fff"/></linearGradient><linearGradient id="linear-gradient-4" x1="300.31" y1="511.14" x2="430.77" y2="511.14" xlink:href="#linear-gradient-3"/><linearGradient id="linear-gradient-5" x1="186.65" y1="246.86" x2="189" y2="246.86" xlink:href="#linear-gradient-3"/></defs><line class="cls-1" x1="91.89" y1="123.65" x2="59.78" y2="121.57"/><path class="cls-2" d="M221.68,249.88S222.2,199,295,181c0,0,76.69,2.74,87.65,76.69,0,0,6.65,43.05-32.87,95.09,0,0-57.42,96.65-64.32,96.65,0,0-93,82.18-91.42,84.52,0,0-22.7,34.44-16,73.18,0,0-21.53-58.31-10.18-106.83,0,0,5.87-88.82,47-120.13,0,0,104.48-67.69,114.65-124.83,0,0,7.44-38.34-24.26-41.08,0,0-54.78,5.87-56.35,9l-27.13,26.61" transform="translate(-164.51 -181.01)"/><path class="cls-3" d="M406.51,309.75l-2,9C392,365.7,282,466.82,282,466.82,211,554.18,237.08,652.07,239.62,660.88h0c2.51-8.46,34.14-76,34.14-76-1.17-9.39,67.38-76.69,67.38-76.69,20-15.26,58.3-99,58.3-99C430.38,364.53,406.51,309.75,406.51,309.75Z" transform="translate(-164.51 -181.01)"/><path class="cls-4" d="M377.5,499.18c-26.4,52.05-66.56,130.84-75.31,148,9.16-10.43,48.75-40.05,48.75-40.05,1.57,2.35,64.36-61.44,64.36-61.44,14.87-11.35,15.47-170.61,15.47-170.61Z" transform="translate(-164.51 -181.01)"/><path class="cls-5" d="M256.87,250.92S277,268.4,289.51,262.14c0,0,20.35-9.54,17.21-17.16,0,0-9.65-16-13-14.67Z" transform="translate(-164.51 -181.01)"/><path class="cls-6" d="M217.51,328.14s-7.83-44.35-7-45.13,8.87-32.61,11.22-33.13,7.31-7,13.31-4.18c0,0,21.91,21.13,20.34,27.39,0,0,2.57,16.46,1.07,31.57-.74,7.48-2.48,14.64-6,19.3,0,0-24-19-26.09-21.39Z" transform="translate(-164.51 -181.01)"/></svg>